{
  "accessors": [
    {
      "bufferView": 2,
      "componentType": 5126,
      "count": 49,
      "max": [
        0.25315728783607483,
        -0.10878664255142212,
        0.4714491367340088
      ],
      "min": [
        -0.25315728783607483,
        -0.1338438093662262,
        0.10663826763629913
      ],
      "type": "VEC3"
    },
    {
      "bufferView": 2,
      "byteOffset": 588,
      "componentType": 5126,
      "count": 49,
      "max": [
        0.10037367045879364,
        -0.9900344610214233,
        0.09977759420871735
      ],
      "min": [
        -0.10037365555763245,
        -1.0,
        -0.0997776985168457
      ],
      "type": "VEC3"
    },
    {
      "bufferView": 1,
      "componentType": 5126,
      "count": 49,
      "max": [
        0.22751384973526,
        0.98649001121521
      ],
      "min": [
        0.012453436851501465,
        0.6880617141723633
      ],
      "type": "VEC2"
    },
    {
      "bufferView": 1,
      "byteOffset": 392,
      "componentType": 5126,
      "count": 49,
      "max": [
        0.22751384973526,
        0.98649001121521
      ],
      "min": [
        0.012453436851501465,
        0.6880617141723633
      ],
      "type": "VEC2"
    },
    {
      "bufferView": 0,
      "componentType": 5125,
      "count": 216,
      "type": "SCALAR"
    },
    {
      "bufferView": 2,
      "byteOffset": 1176,
      "componentType": 5126,
      "count": 935,
      "max": [
        0.28077006340026855,
        0.40313801169395447,
        0.5014565587043762
      ],
      "min": [
        -0.28077006340026855,
        -0.15203122794628143,
        0.0
      ],
      "type": "VEC3"
    },
    {
      "bufferView": 2,
      "byteOffset": 12396,
      "componentType": 5126,
      "count": 935,
      "max": [
        1.0,
        1.0,
        1.0
      ],
      "min": [
        -1.0,
        -1.0,
        -1.0
      ],
      "type": "VEC3"
    },
    {
      "bufferView": 3,
      "componentType": 5126,
      "count": 935,
      "max": [
        1.0,
        1.0,
        1.0,
        1.0
      ],
      "min": [
        -1.0,
        -1.0,
        -1.0,
        -1.0
      ],
      "type": "VEC4"
    },
    {
      "bufferView": 1,
      "byteOffset": 784,
      "componentType": 5126,
      "count": 935,
      "max": [
        0.9820895791053772,
        0.991286039352417
      ],
      "min": [
        0.004990902729332447,
        0.0027915509417653084
      ],
      "type": "VEC2"
    },
    {
      "bufferView": 1,
      "byteOffset": 8264,
      "componentType": 5126,
      "count": 935,
      "max": [
        0.9820895791053772,
        0.991286039352417
      ],
      "min": [
        0.004990902729332447,
        0.0027915509417653084
      ],
      "type": "VEC2"
    },
    {
      "bufferView": 1,
      "byteOffset": 15744,
      "componentType": 5126,
      "count": 935,
      "max": [
        0.9820895791053772,
        0.991286039352417
      ],
      "min": [
        0.004990902729332447,
        0.0027915509417653084
      ],
      "type": "VEC2"
    },
    {
      "bufferView": 0,
      "byteOffset": 864,
      "componentType": 5125,
      "count": 2940,
      "type": "SCALAR"
    }
  ],
  "asset": {
    "extras": {
      "author": "HiddenGhillieDhu (https://sketchfab.com/HiddenGhillieDhu)",
      "license": "CC-BY-4.0 (http://creativecommons.org/licenses/by/4.0/)",
      "source": "https://sketchfab.com/3d-models/retro-90s-tv-d1a52fcfd95d4901af3b6ae1359cc242",
      "title": "Retro 90's TV"
    },
    "generator": "Sketchfab-17.15.0",
    "version": "2.0"
  },
  "bufferViews": [
    {
      "buffer": 0,
      "byteLength": 12624,
      "name": "floatBufferViews",
      "target": 34963
    },
    {
      "buffer": 0,
      "byteLength": 23224,
      "byteOffset": 12624,
      "byteStride": 8,
      "name": "floatBufferViews",
      "target": 34962
    },
    {
      "buffer": 0,
      "byteLength": 23616,
      "byteOffset": 35848,
      "byteStride": 12,
      "name": "floatBufferViews",
      "target": 34962
    },
    {
      "buffer": 0,
      "byteLength": 14960,
      "byteOffset": 59464,
      "byteStride": 16,
      "name": "floatBufferViews",
      "target": 34962
    }
  ],
  "buffers": [
    {
      "byteLength": 74424,
      "uri": "scene.bin"
    }
  ],
  "extensionsUsed": [
    "KHR_materials_specular"
  ],
  "images": [
    {
      "uri": "textures/mat_screen_baseColor.png"
    },
    {
      "uri": "textures/mat_screen_metallicRoughness.png"
    },
    {
      "uri": "textures/mat_90sTV_normal.png"
    }
  ],
  "materials": [
    {
      "doubleSided": true,
      "extensions": {
        "KHR_materials_specular": {
          "specularColorFactor": [
            1.0,
            1.0,
            1.0
          ],
          "specularFactor": 0.0
        }
      },
      "name": "mat_screen",
      "pbrMetallicRoughness": {
        "baseColorTexture": {
          "index": 0
        },
        "metallicRoughnessTexture": {
          "index": 1
        }
      }
    },
    {
      "doubleSided": true,
      "extensions": {
        "KHR_materials_specular": {
          "specularColorFactor": [
            1.0,
            1.0,
            1.0
          ],
          "specularFactor": 0.0
        }
      },
      "name": "mat_90sTV",
      "normalTexture": {
        "index": 2
      },
      "pbrMetallicRoughness": {
        "baseColorTexture": {
          "index": 0
        },
        "metallicRoughnessTexture": {
          "index": 1
        }
      }
    }
  ],
  "meshes": [
    {
      "name": "90sTV_mat_screen_0",
      "primitives": [
        {
          "attributes": {
            "NORMAL": 1,
            "POSITION": 0,
            "TEXCOORD_0": 2,
            "TEXCOORD_1": 3
          },
          "indices": 4,
          "material": 0,
          "mode": 4
        }
      ]
    },
    {
      "name": "90sTV_mat_90sTV_0",
      "primitives": [
        {
          "attributes": {
            "NORMAL": 6,
            "POSITION": 5,
            "TANGENT": 7,
            "TEXCOORD_0": 8,
            "TEXCOORD_1": 9,
            "TEXCOORD_2": 10
          },
          "indices": 11,
          "material": 1,
          "mode": 4
        }
      ]
    }
  ],
  "nodes": [
    {
      "children": [
        1
      ],
      "matrix": [
        0.9433591961860657,
        0.0,
        0.0,
        0.0,
        0.0,
        2.0946782001953005e-16,
        -0.9433591961860657,
        0.0,
        0.0,
        0.9433591961860657,
        2.0946782001953005e-16,
        0.0,
        0.0,
        0.0,
        0.0,
        1.0
      ],
      "name": "Sketchfab_model"
    },
    {
      "children": [
        2
      ],
      "matrix": [
        0.009999999776482582,
        0.0,
        0.0,
        0.0,
        0.0,
        0.0,
        0.009999999776482582,
        0.0,
        0.0,
        -0.009999999776482582,
        0.0,
        0.0,
        0.0,
        0.0,
        0.0,
        1.0
      ],
      "name": "9b3d3012f6724ba7aabec795fe06ecc6.fbx"
    },
    {
      "children": [
        3
      ],
      "name": "RootNode"
    },
    {
      "children": [
        4,
        5
      ],
      "matrix": [
        100.0,
        0.0,
        0.0,
        0.0,
        0.0,
        -1.629206793918314e-05,
        -99.99999999999868,
        0.0,
        0.0,
        99.99999999999868,
        -1.629206793918314e-05,
        0.0,
        0.0,
        0.0,
        0.0,
        1.0
      ],
      "name": "90sTV"
    },
    {
      "mesh": 0,
      "name": "90sTV_mat_screen_0"
    },
    {
      "mesh": 1,
      "name": "90sTV_mat_90sTV_0"
    }
  ],
  "samplers": [
    {
      "magFilter": 9729,
      "minFilter": 9987,
      "wrapS": 10497,
      "wrapT": 10497
    }
  ],
  "scene": 0,
  "scenes": [
    {
      "name": "Sketchfab_Scene",
      "nodes": [
        0
      ]
    }
  ],
  "textures": [
    {
      "sampler": 0,
      "source": 0
    },
    {
      "sampler": 0,
      "source": 1
    },
    {
      "sampler": 0,
      "source": 2
    }
  ]
}
